<?xml version="1.0" encoding="UTF-8"?>
<!DOCTYPE svg PUBLIC "-//W3C//DTD SVG 1.1//EN" "http://www.w3.org/Graphics/SVG/1.1/DTD/svg11.dtd">
<svg xmlns="http://www.w3.org/2000/svg" version="1.1" width="873px" height="874px" style="shape-rendering:geometricPrecision; text-rendering:geometricPrecision; image-rendering:optimizeQuality; fill-rule:evenodd; clip-rule:evenodd" xmlns:xlink="http://www.w3.org/1999/xlink">
<g><path style="opacity:0.994" fill="#ceff16" d="M 417.5,-0.5 C 429.833,-0.5 442.167,-0.5 454.5,-0.5C 576.752,6.63221 679.086,55.1322 761.5,145C 679.695,224.471 598.195,304.304 517,384.5C 499.907,406.186 495.24,430.186 503,456.5C 505.919,462.677 509.586,468.344 514,473.5C 595.971,557.805 678.304,641.805 761,725.5C 761.667,726.5 761.667,727.5 761,728.5C 679.683,816.904 578.849,865.237 458.5,873.5C 443.5,873.5 428.5,873.5 413.5,873.5C 337.958,868.946 267.958,846.779 203.5,807C 196.324,802.245 189.324,797.245 182.5,792C 240.485,786.905 292.485,766.905 338.5,732C 388.025,689.603 413.025,635.603 413.5,570C 414.286,496.866 383.286,442.2 320.5,406C 292.788,390.98 263.788,378.98 233.5,370C 183.61,356.778 133.944,342.778 84.5,328C 63.9955,320.08 43.9955,311.08 24.5,301C 23.3128,299.981 22.3128,298.814 21.5,297.5C 37.8729,248.902 61.8729,204.735 93.5,165C 143.924,162.474 188.258,177.474 226.5,210C 245.629,227.447 262.129,246.947 276,268.5C 285.433,280.267 296.933,289.434 310.5,296C 340.501,303.779 364.668,295.279 383,270.5C 393.234,252.756 395.234,234.089 389,214.5C 377.79,181.249 358.956,153.083 332.5,130C 307.546,107.512 278.88,91.1791 246.5,81C 231.408,76.0603 216.074,72.0603 200.5,69C 266.591,26.4701 338.924,3.30343 417.5,-0.5 Z"/></g>
<g><path style="opacity:0.989" fill="#ceff16" d="M 872.5,406.5 C 872.5,426.5 872.5,446.5 872.5,466.5C 868.775,513.738 857.942,559.404 840,603.5C 784.154,546.321 728.321,489.155 672.5,432C 727.004,376.662 782.338,322.162 838.5,268.5C 840.645,270.732 842.145,273.399 843,276.5C 859.179,318.537 869.012,361.87 872.5,406.5 Z"/></g>
<g><path style="opacity:0.992" fill="#ceff16" d="M -0.5,438.5 C 23.4478,447.406 47.7811,455.24 72.5,462C 105.042,469.552 137.376,477.886 169.5,487C 192.847,493.509 214.513,503.509 234.5,517C 263.875,546.675 271.375,581.175 257,620.5C 250.797,634.042 241.631,645.209 229.5,654C 196.569,676.325 160.236,684.658 120.5,679C 101.24,677.185 82.5734,672.852 64.5,666C 26.4941,604.482 4.82739,537.648 -0.5,465.5C -0.5,456.5 -0.5,447.5 -0.5,438.5 Z"/></g>
</svg>
