<?xml version="1.0" encoding="UTF-8"?>
<!DOCTYPE svg PUBLIC "-//W3C//DTD SVG 1.1//EN" "http://www.w3.org/Graphics/SVG/1.1/DTD/svg11.dtd">
<svg xmlns="http://www.w3.org/2000/svg" version="1.1" width="2611px" height="715px" style="shape-rendering:geometricPrecision; text-rendering:geometricPrecision; image-rendering:optimizeQuality; fill-rule:evenodd; clip-rule:evenodd" xmlns:xlink="http://www.w3.org/1999/xlink">
<g><path style="opacity:0.992" fill="#ceff16" d="M 936.5,-0.5 C 943.167,-0.5 949.833,-0.5 956.5,-0.5C 985.401,7.88375 1006.23,25.8837 1019,53.5C 1027.42,75.0083 1024.42,94.675 1010,112.5C 928.805,192.696 847.305,272.529 765.5,352C 846.696,434.195 927.529,516.695 1008,599.5C 1026.02,621.501 1028.35,645.167 1015,670.5C 1001.38,692.642 982.215,707.309 957.5,714.5C 950.5,714.5 943.5,714.5 936.5,714.5C 924.539,710.734 913.872,704.567 904.5,696C 806.363,594.862 707.863,494.029 609,393.5C 592.722,373.005 589.722,350.671 600,326.5C 602.768,318.747 606.768,311.747 612,305.5C 712.529,206.637 813.362,108.137 914.5,10C 921.32,5.23692 928.654,1.73692 936.5,-0.5 Z"/></g>
<g><path style="opacity:0.992" fill="#ceff16" d="M 301.5,714.5 C 283.5,714.5 265.5,714.5 247.5,714.5C 199.369,712.55 153.703,700.717 110.5,679C 54.1488,646.48 17.9822,598.646 2,535.5C 1.16303,528.351 0.329699,521.351 -0.5,514.5C -0.5,512.833 -0.5,511.167 -0.5,509.5C 2.03139,479.12 18.0314,459.62 47.5,451C 77.9642,445.152 100.798,455.652 116,482.5C 123.667,498.5 131.333,514.5 139,530.5C 148.308,547.81 161.141,561.977 177.5,573C 227.806,601.413 280.806,608.08 336.5,593C 354.99,586.008 370.823,575.175 384,560.5C 402.516,535.392 406.516,508.059 396,478.5C 389.188,460.695 377.688,446.861 361.5,437C 337.043,424.18 311.376,414.513 284.5,408C 237.882,398.237 192.216,385.237 147.5,369C 105.481,354.433 70.6473,329.933 43,295.5C 25.8142,271.282 16.1475,244.282 14,214.5C 8.86464,125.702 46.698,63.2023 127.5,27C 174.009,8.46989 222.343,-0.363442 272.5,0.5C 327.878,-0.859259 380.211,10.9741 429.5,36C 468.591,58.7575 498.425,90.2575 519,130.5C 526.895,146.642 529.895,163.642 528,181.5C 523.144,203.682 510.311,219.182 489.5,228C 467.182,236.225 446.848,232.891 428.5,218C 415.534,205.539 404.368,191.706 395,176.5C 374.653,151.481 350.153,131.647 321.5,117C 290.165,102.777 257.498,98.11 223.5,103C 190.651,109.226 165.484,126.392 148,154.5C 136.853,186.39 144.687,212.557 171.5,233C 193.849,244.227 216.849,253.894 240.5,262C 281.279,274.112 322.279,285.445 363.5,296C 395.057,304.947 425.391,316.947 454.5,332C 510.744,361.947 541.91,408.781 548,472.5C 554.203,572.976 512.037,644.476 421.5,687C 382.985,703.133 342.985,712.3 301.5,714.5 Z"/></g>
<g><path style="opacity:0.998" fill="#ceff16" d="M 1276.5,714.5 C 1267.5,714.5 1258.5,714.5 1249.5,714.5C 1215.74,705.205 1197.24,682.871 1194,647.5C 1193.33,454.5 1193.33,261.5 1194,68.5C 1200.15,19.6759 1227.65,-2.49074 1276.5,2C 1300.48,6.64793 1317.31,20.1479 1327,42.5C 1330.11,51.2547 1332.11,60.2547 1333,69.5C 1333.67,261.5 1333.67,453.5 1333,645.5C 1330.57,682.387 1311.74,705.387 1276.5,714.5 Z"/></g>
<g><path style="opacity:0.991" fill="#ceff16" d="M 1563.5,4.5 C 1693.5,4.33333 1823.5,4.5 1953.5,5C 1994.98,8.13479 2013.48,30.3015 2009,71.5C 2003.76,93.0766 1990.26,106.243 1968.5,111C 1963.88,111.958 1959.21,112.625 1954.5,113C 1846.17,113.5 1737.83,113.667 1629.5,113.5C 1629.5,169.5 1629.5,225.5 1629.5,281.5C 1731.85,281.02 1834.19,281.52 1936.5,283C 1966.26,287.376 1981.59,304.542 1982.5,334.5C 1981.48,365.027 1965.81,382.527 1935.5,387C 1833.52,388.473 1731.52,388.973 1629.5,388.5C 1629.5,453.5 1629.5,518.5 1629.5,583.5C 1742.83,583.333 1856.17,583.5 1969.5,584C 2009.02,590.54 2025.86,613.707 2020,653.5C 2013.88,675.289 1999.71,688.456 1977.5,693C 1972.55,693.995 1967.55,694.662 1962.5,695C 1830.17,695.667 1697.83,695.667 1565.5,695C 1547,694.795 1530,689.795 1514.5,680C 1503.68,670.879 1496.51,659.379 1493,645.5C 1490.55,635.653 1489.21,625.653 1489,615.5C 1488.02,433.82 1488.35,252.154 1490,70.5C 1491.5,50.2673 1499.67,33.4339 1514.5,20C 1529.58,10.6516 1545.91,5.48489 1563.5,4.5 Z"/></g>
<g><path style="opacity:0.991" fill="#ceff16" d="M 2610.5,52.5 C 2610.5,56.5 2610.5,60.5 2610.5,64.5C 2606.51,91.6621 2590.84,107.495 2563.5,112C 2465.52,113.479 2367.52,113.979 2269.5,113.5C 2269.5,171.833 2269.5,230.167 2269.5,288.5C 2351.85,288.028 2434.19,288.528 2516.5,290C 2553.18,297.815 2568.01,320.315 2561,357.5C 2554.58,377.916 2540.75,389.75 2519.5,393C 2436.19,394.481 2352.86,394.981 2269.5,394.5C 2269.67,473.501 2269.5,552.501 2269,631.5C 2269.07,655.975 2260.24,676.475 2242.5,693C 2225.43,705.217 2206.43,709.551 2185.5,706C 2160.03,700.865 2142.86,686.032 2134,661.5C 2131.36,652.684 2129.7,643.684 2129,634.5C 2128.33,448.833 2128.33,263.167 2129,77.5C 2131.45,30.3854 2156.28,6.21876 2203.5,5C 2320.17,4.33333 2436.83,4.33333 2553.5,5C 2585.39,5.88075 2604.39,21.7141 2610.5,52.5 Z"/></g>
</svg>
